{
    "accessors": [
        {
            "bufferView": 0,
            "byteOffset": 0,
            "componentType": 5123,
            "count": 4560,
            "type": "SCALAR"
        },
        {
            "bufferView": 1,
            "byteOffset": 0,
            "componentType": 5126,
            "count": 1024,
            "max": [
                94.8848876953125,
                137.363983154297,
                94.8849334716797
            ],
            "min": [
                -94.8849105834961,
                -5.7334041595459,
                -94.8849334716797
            ],
            "type": "VEC3"
        },
        {
            "bufferView": 2,
            "byteOffset": 0,
            "componentType": 5126,
            "count": 1024,
            "type": "VEC3"
        },
        {
            "bufferView": 3,
            "byteOffset": 0,
            "componentType": 5126,
            "count": 1024,
            "type": "VEC4"
        },
        {
            "bufferView": 4,
            "byteOffset": 0,
            "componentType": 5126,
            "count": 1024,
            "type": "VEC2"
        }
    ],
    "asset": {
        "generator": "FBX2glTF",
        "version": "2.0"
    },
    "bufferViews": [
        {
            "buffer": 0,
            "byteLength": 9120,
            "byteOffset": 0,
            "target": 34963
        },
        {
            "buffer": 0,
            "byteLength": 12288,
            "byteOffset": 9120,
            "target": 34962
        },
        {
            "buffer": 0,
            "byteLength": 12288,
            "byteOffset": 21408,
            "target": 34962
        },
        {
            "buffer": 0,
            "byteLength": 16384,
            "byteOffset": 33696,
            "target": 34962
        },
        {
            "buffer": 0,
            "byteLength": 8192,
            "byteOffset": 50080,
            "target": 34962
        }
    ],
    "buffers": [
        {
            "byteLength": 58272,
            "uri": "data:application/octet-stream;base64,"
        }
    ],
    "images": [
        {
            "name": "Base_albedo.jpg",
            "uri": "Base_albedo.jpg"
        },
        {
            "name": "Base_normal.jpg",
            "uri": "Base_normal.jpg"
        }    
    ],
    "materials": [
        {
            "alphaMode": "OPAQUE",
            "name": "BaseMat",
            "normalTexture": {
                "index": 1,
                "texCoord": 0
            },
            "pbrMetallicRoughness": {
                "baseColorFactor": [
                    0.800000011920929,
                    0.800000011920929,
                    0.800000011920929,
                    1.0
                ],
                "baseColorTexture": {
                    "index": 0,
                    "texCoord": 0
                },
                "metallicFactor": 0.2,
                "roughnessFactor": 0.6
            }
        }
    ],
    "meshes": [
        {
            "name": "Base",
            "primitives": [
                {
                    "attributes": {
                        "NORMAL": 2,
                        "POSITION": 1,
                        "TANGENT": 3,
                        "TEXCOORD_0": 4
                    },
                    "indices": 0,
                    "material": 0,
                    "mode": 4
                }
            ]
        }
    ],
    "nodes": [
        {
            "children": [
                1
            ],
            "name": "RootNode",
            "rotation": [
                0.0,
                0.0,
                0.0,
                1.0
            ],
            "scale": [
                1.0,
                1.0,
                1.0
            ],
            "translation": [
                0.0,
                0.0,
                0.0
            ]
        },
        {
            "mesh": 0,
            "name": "Base",
            "rotation": [
                0.0,
                0.0,
                0.0,
                1.0
            ],
            "scale": [
                0.091900497674942,
                0.091900497674942,
                0.091900497674942
            ],
            "translation": [
                1.98381414406867e-07,
                -4.07078266143799,
                2.14908155271587e-07
            ]
        }
    ],
    "samplers": [
        {}
    ],
    "scene": 0,
    "scenes": [
        {
            "name": "Root Scene",
            "nodes": [
                0
            ]
        }
    ],
    "textures": [
        {
            "name": "file1",
            "sampler": 0,
            "source": 0
        },
        {
            "name": "file2",
            "sampler": 0,
            "source": 1
        }
    ]
}