{
    "accessors": [
        {
            "bufferView": 0,
            "byteOffset": 0,
            "componentType": 5123,
            "count": 25182,
            "type": "SCALAR"
        },
        {
            "bufferView": 1,
            "byteOffset": 0,
            "componentType": 5126,
            "count": 18607,
            "max": [
                104.556686401367,
                116.050148010254,
                60.4569702148438
            ],
            "min": [
                -34.5616226196289,
                0.292709350585938,
                -34.6317901611328
            ],
            "type": "VEC3"
        },
        {
            "bufferView": 2,
            "byteOffset": 0,
            "componentType": 5126,
            "count": 18607,
            "type": "VEC3"
        },
        {
            "bufferView": 3,
            "byteOffset": 0,
            "componentType": 5126,
            "count": 18607,
            "type": "VEC4"
        },
        {
            "bufferView": 4,
            "byteOffset": 0,
            "componentType": 5126,
            "count": 18607,
            "type": "VEC2"
        }
    ],
    "asset": {
        "generator": "FBX2glTF",
        "version": "2.0"
    },
    "bufferViews": [
        {
            "buffer": 0,
            "byteLength": 50364,
            "byteOffset": 0,
            "target": 34963
        },
        {
            "buffer": 0,
            "byteLength": 223284,
            "byteOffset": 50364,
            "target": 34962
        },
        {
            "buffer": 0,
            "byteLength": 223284,
            "byteOffset": 273648,
            "target": 34962
        },
        {
            "buffer": 0,
            "byteLength": 297712,
            "byteOffset": 496932,
            "target": 34962
        },
        {
            "buffer": 0,
            "byteLength": 148856,
            "byteOffset": 794644,
            "target": 34962
        }
    ],
    "buffers": [
        {
            "byteLength": 943500,
            "uri": "data:application/octet-stream;base64,"
        }
    ],
    "images": [
        {
            "name": "robot_D.png",
            "uri": "robot_D.png"
        }
    ],
    "materials": [
        {
            "alphaMode": "BLEND",
            "name": "robot:lambert2SG1",
            "pbrMetallicRoughness": {
                "baseColorFactor": [
                    0.800000011920929,
                    0.800000011920929,
                    0.800000011920929,
                    1.0
                ],
                "baseColorTexture": {
                    "index": 0,
                    "texCoord": 0
                },
                "metallicFactor": 0.100000001490116,
                "roughnessFactor": 0.400000005960464
            }
        }
    ],
    "meshes": [
        {
            "name": "robot:polySurface1",
            "primitives": [
                {
                    "attributes": {
                        "NORMAL": 2,
                        "POSITION": 1,
                        "TANGENT": 3,
                        "TEXCOORD_0": 4
                    },
                    "indices": 0,
                    "material": 0,
                    "mode": 4
                }
            ]
        }
    ],
    "nodes": [
        {
            "children": [
                1
            ],
            "name": "RootNode",
            "rotation": [
                0.0,
                0.0,
                0.0,
                1.0
            ],
            "scale": [
                1.0,
                1.0,
                1.0
            ],
            "translation": [
                0.0,
                0.0,
                0.0
            ]
        },
        {
            "mesh": 0,
            "name": "robot:polySurface1",
            "rotation": [
                0.0,
                0.0,
                0.0,
                1.0
            ],
            "scale": [
                0.00999999977648258,
                0.00999999977648258,
                0.00999999977648258
            ],
            "translation": [
                0.0,
                0.0,
                0.0
            ]
        }
    ],
    "samplers": [
        {}
    ],
    "scene": 0,
    "scenes": [
        {
            "name": "Root Scene",
            "nodes": [
                0
            ]
        }
    ],
    "textures": [
        {
            "name": "robot:lambert2SG1F",
            "sampler": 0,
            "source": 0
        }
    ]
}