{
    "accessors": [
        {
            "bufferView": 0,
            "byteOffset": 0,
            "componentType": 5123,
            "count": 14550,
            "type": "SCALAR"
        },
        {
            "bufferView": 1,
            "byteOffset": 0,
            "componentType": 5126,
            "count": 9717,
            "max": [
                261.074371337891,
                194.309127807617,
                335.717224121094
            ],
            "min": [
                -261.074371337891,
                -76.5672073364258,
                -182.300231933594
            ],
            "type": "VEC3"
        },
        {
            "bufferView": 2,
            "byteOffset": 0,
            "componentType": 5126,
            "count": 9717,
            "type": "VEC3"
        },
        {
            "bufferView": 3,
            "byteOffset": 0,
            "componentType": 5126,
            "count": 9717,
            "type": "VEC4"
        },
        {
            "bufferView": 4,
            "byteOffset": 0,
            "componentType": 5126,
            "count": 9717,
            "type": "VEC2"
        }
    ],
    "asset": {
        "generator": "FBX2glTF",
        "version": "2.0"
    },
    "bufferViews": [
        {
            "buffer": 0,
            "byteLength": 29100,
            "byteOffset": 0,
            "target": 34963
        },
        {
            "buffer": 0,
            "byteLength": 116604,
            "byteOffset": 29100,
            "target": 34962
        },
        {
            "buffer": 0,
            "byteLength": 116604,
            "byteOffset": 145704,
            "target": 34962
        },
        {
            "buffer": 0,
            "byteLength": 155472,
            "byteOffset": 262308,
            "target": 34962
        },
        {
            "buffer": 0,
            "byteLength": 77736,
            "byteOffset": 417780,
            "target": 34962
        }
    ],
    "buffers": [
        {
            "byteLength": 495516,
            "uri": "data:application/octet-stream;base64,"
        }
    ],
    "images": [
        {
            "name": "TheaterFinalColor.png",
            "uri": "TheaterFinalColor.png"
        }
    ],
    "materials": [
        {
            "alphaMode": "OPAQUE",
            "name": "Theater:lambert3SG1",
            "pbrMetallicRoughness": {
                "baseColorFactor": [
                    0.800000011920929,
                    0.800000011920929,
                    0.800000011920929,
                    1.0
                ],
                "baseColorTexture": {
                    "index": 0,
                    "texCoord": 0
                },
                "metallicFactor": 0.100000001490116,
                "roughnessFactor": 0.400000005960464
            }
        }
    ],
    "meshes": [
        {
            "name": "Theater_",
            "primitives": [
                {
                    "attributes": {
                        "NORMAL": 2,
                        "POSITION": 1,
                        "TANGENT": 3,
                        "TEXCOORD_0": 4
                    },
                    "indices": 0,
                    "material": 0,
                    "mode": 4
                }
            ]
        }
    ],
    "nodes": [
        {
            "children": [
                1
            ],
            "name": "RootNode",
            "rotation": [
                0.0,
                0.0,
                0.0,
                1.0
            ],
            "scale": [
                1.0,
                1.0,
                1.0
            ],
            "translation": [
                0.0,
                0.0,
                0.0
            ]
        },
        {
            "mesh": 0,
            "name": "Theater_",
            "rotation": [
                0.0,
                0.0,
                0.0,
                1.0
            ],
            "scale": [
                0.00999999977648258,
                0.00999999977648258,
                0.00999999977648258
            ],
            "translation": [
                0.0,
                0.0,
                0.0
            ]
        }
    ],
    "samplers": [
        {}
    ],
    "scene": 0,
    "scenes": [
        {
            "name": "Root Scene",
            "nodes": [
                0
            ]
        }
    ],
    "textures": [
        {
            "name": "Theater:lambert3SG1F",
            "sampler": 0,
            "source": 0
        }
    ]
}